<?xml version="1.0" encoding="UTF-8" standalone="no"?>
<svg width="212px" height="156px" viewBox="0 0 212 156" version="1.1" xmlns="http://www.w3.org/2000/svg" xmlns:xlink="http://www.w3.org/1999/xlink" xmlns:sketch="http://www.bohemiancoding.com/sketch/ns">
    <!-- Generator: Sketch 3.4.2 (15855) - http://www.bohemiancoding.com/sketch -->
    <title>Oval 2 + Oval 2 Copy 2 + Oval 2 Copy Copy Copy Copy</title>
    <desc>Created with Sketch.</desc>
    <defs>
        <linearGradient x1="100%" y1="0%" x2="0%" y2="100%" id="linearGradient-1">
            <stop stop-color="#27D39A" offset="0%"></stop>
            <stop stop-color="#41EDB4" offset="100%"></stop>
        </linearGradient>
        <linearGradient x1="100%" y1="0%" x2="0%" y2="100%" id="linearGradient-2">
            <stop stop-color="#F4B664" offset="0%"></stop>
            <stop stop-color="#FCC875" offset="67.2290792%"></stop>
            <stop stop-color="#FFD07E" offset="100%"></stop>
        </linearGradient>
        <linearGradient x1="100%" y1="0%" x2="0%" y2="100%" id="linearGradient-3">
            <stop stop-color="#48BFF2" offset="0%"></stop>
            <stop stop-color="#62D9FF" offset="100%"></stop>
        </linearGradient>
    </defs>
    <g id="Colors-/-Fonts-/-Icons" stroke="none" stroke-width="1" fill="none" fill-rule="evenodd" sketch:type="MSPage">
        <g id="Artboard-9" sketch:type="MSArtboardGroup" transform="translate(-4677.000000, -601.000000)" stroke-width="12.1621622">
            <g id="Oval-2-+-Oval-2-Copy-2-+-Oval-2-Copy-Copy-Copy-Copy" sketch:type="MSLayerGroup" transform="translate(4684.000000, 608.000000)">
                <ellipse id="Oval-2" stroke="url(#linearGradient-1)" sketch:type="MSShapeGroup" cx="48.6985268" cy="93.7408738" rx="48.6985268" ry="48.908282"></ellipse>
                <ellipse id="Oval-2-Copy" stroke="url(#linearGradient-2)" sketch:type="MSShapeGroup" cx="105.513475" cy="57.0596623" rx="56.8149479" ry="57.0596623"></ellipse>
                <ellipse id="Oval-2-Copy-2" stroke="url(#linearGradient-3)" sketch:type="MSShapeGroup" cx="162.328423" cy="101.892254" rx="36.5238951" ry="36.6812115"></ellipse>
                <path d="M105.513475,114.119325 L105.513475,114.119325 C136.891504,114.119325 162.328423,88.5728436 162.328423,57.0596623 C162.328423,25.546481 136.891504,0 105.513475,0" id="Oval-2-Copy-4" stroke="url(#linearGradient-2)" sketch:type="MSShapeGroup"></path>
                <path d="M97.3970535,93.7408738 C97.3970535,66.7295755 75.5939805,44.8325918 48.6985268,44.8325918 C21.8030731,44.8325918 0,66.7295755 0,93.7408738" id="Oval-2-Copy-3" stroke="url(#linearGradient-1)" sketch:type="MSShapeGroup"></path>
                <path d="M162.328423,138.573466 C182.500013,138.573466 198.852318,122.150728 198.852318,101.892254 C198.852318,81.6337804 182.500013,65.2110426 162.328423,65.2110426 C152.848039,65.2110426 144.211288,68.8386238 137.719278,74.7870747" id="Oval-2-Copy-5" stroke="url(#linearGradient-3)" sketch:type="MSShapeGroup"></path>
            </g>
        </g>
    </g>
</svg>